<svg width="128" height="128" viewBox="0 0 128 128" fill="none" xmlns="http://www.w3.org/2000/svg">
<g clip-path="url(#clip0_58_24)">
<path d="M109.165 54.9489L109.04 54.6139L96.3574 21.5327C96.1007 20.8831 95.644 20.3321 95.0533 19.9594C94.6126 19.6773 94.1119 19.5023 93.5914 19.4485C93.0708 19.3948 92.545 19.4637 92.0559 19.6498C91.5668 19.8359 91.1281 20.134 90.7749 20.5202C90.4218 20.9064 90.1641 21.3699 90.0224 21.8737L81.4619 48.0814H46.7955L38.235 21.8737C38.0922 21.3707 37.8339 20.908 37.4806 20.5226C37.1273 20.1371 36.6888 19.8395 36.2001 19.6536C35.7114 19.4676 35.186 19.3985 34.6658 19.4516C34.1457 19.5047 33.6451 19.6786 33.204 19.9594C32.6134 20.3321 32.1566 20.8831 31.8999 21.5327L19.2238 54.6199L19.0922 54.9489C17.2672 59.7185 17.0424 64.9521 18.4516 69.8607C19.8608 74.7692 22.8277 79.0865 26.9049 82.1616L26.9527 82.1975L27.0604 82.2813L46.3528 96.7401L55.9242 103.973L61.7388 108.369C62.4211 108.885 63.2527 109.164 64.1077 109.164C64.9627 109.164 65.7944 108.885 66.4767 108.369L72.2913 103.973L81.8627 96.7401L101.293 82.1975L101.347 82.1557C105.423 79.0817 108.391 74.7658 109.801 69.8585C111.211 64.9511 110.988 59.7184 109.165 54.9489Z" fill="#E24329"/>
<path d="M109.165 54.9487L109.04 54.6137C102.861 55.8817 97.0387 58.5006 91.9906 62.2828L64.1438 83.3399L81.8748 96.7399L101.305 82.1973L101.359 82.1555C105.434 79.0799 108.398 74.7633 109.806 69.8561C111.215 64.9488 110.99 59.7169 109.165 54.9487Z" fill="#FC6D26"/>
<path d="M46.3528 96.7401L55.9242 103.973L61.7388 108.369C62.4211 108.885 63.2528 109.164 64.1078 109.164C64.9628 109.164 65.7944 108.885 66.4767 108.369L72.2913 103.973L81.8627 96.7401L64.1317 83.3401L46.3528 96.7401Z" fill="#FCA326"/>
<path d="M36.2669 62.2829C31.2207 58.5026 25.4006 55.8857 19.2238 54.6198L19.0922 54.9488C17.2672 59.7184 17.0424 64.9521 18.4516 69.8606C19.8608 74.7691 22.8277 79.0864 26.9049 82.1616L26.9527 82.1974L27.0604 82.2812L46.3528 96.74L64.0958 83.34L36.2669 62.2829Z" fill="#FC6D26"/>
</g>
<defs>
<clipPath id="clip0_58_24">
<rect width="93.9195" height="90.3302" fill="white" transform="translate(17.0403 18.8349)"/>
</clipPath>
</defs>
</svg>
